# xmcd
#
# Track frame offsets:
#	150
#	19328
#	35093
#	50677
#	75927
#	103383
#	119435
#	143772
#	161001
#	183751
#	200801
#	219536
#	236647
#	254469
#	273127
#	294444
#	314507
#	334403
#
# Disc length: 4719 seconds
#
# Revision: 1
# Processed by: cddbd v1.5.1PL0 Copyright (c) Steve Scherf et al.
# Submitted via: audiograbber 1.83.01
#
DISCID=15126d12
DTITLE=Alicia Keys - KARMA
DYEAR=1900
DGENRE=
TTITLE0=Karma
TTITLE1=Fallin'
TTITLE2=Heartburn
TTITLE3=Rock Wit U
TTITLE4=You Don't Know My Name
TTITLE5=Girlfriend
TTITLE6=The Life
TTITLE7=So Simple
TTITLE8=A Woman's Worth
TTITLE9=Jane Doe
TTITLE10=When You Really Love Someone
TTITLE11=If I Ain't Got You
TTITLE12=How Come You Don't Call Me
TTITLE13=Mr. Man
TTITLE14=Diary feat. Tony! Toni! Tone!
TTITLE15=Troubles
TTITLE16=Wake Up
TTITLE17=Goodbye
EXTD=
EXTT0=
EXTT1=
EXTT2=
EXTT3=
EXTT4=
EXTT5=
EXTT6=
EXTT7=
EXTT8=
EXTT9=
EXTT10=
EXTT11=
EXTT12=
EXTT13=
EXTT14=
EXTT15=
EXTT16=
EXTT17=
PLAYORDER=
